Shutter.Island.2010.1080p.BluRay.mkv
************************************

TiTLE......  Shutter Island
YEAR.......  2010
GENRE......  Drama | Mystery | Thriller 
iMDB RATE..  User Rating: 8.1/10 (67,770 votes)
iMDB URL...  http://www.imdb.com/title/tt1130884/
*************************************************

Video
Duration                         : 2h 18mn
Overall bit rate                 : 7 832 Kbps
Width                            : 1 920 pixels
Height                           : 816 pixels
Display aspect ratio             : 2.35:1
Frame rate                       : 23.976 fps
Stream size                      : 5.94 GiB (79%)

Audio
Format                           : DTS
Bit rate                         : 1 510 Kbps
Channel(s)                       : 6 channels
Channel positions                : Front: L C R, Surround: L R, LFE
Sampling rate                    : 48.0 KHz
Stream size                      : 1.46 GiB (19%)
Language                         : English

Subtitles: English, French
**************************


